<svg xmlns="http://www.w3.org/2000/svg" width="560" height="153" fill="none" viewBox="0 0 560 153"><ellipse cx="39.5" cy="99" fill="#24DB78" rx="39.5" ry="38"/><ellipse cx="98.5" cy="61.5" fill="#24DB78" rx="59.5" ry="61.5"/><path fill="#fff" d="M206.828 90.1631L195.963 100.356L191.996 123H171.122L186.503 34.1328H207.438L200.785 72.1577L209.452 61.5986L232.523 34.1328H259.623L222.758 74.355L243.205 123H219.34L206.828 90.1631ZM271.647 123H250.773L266.215 34.1328H287.028L271.647 123ZM361.063 92.7266C360.535 98.9521 358.48 104.486 354.899 109.328C351.359 114.17 346.68 117.893 340.861 120.498C335.083 123.102 328.817 124.343 322.062 124.221C312.785 124.017 305.481 121.027 300.15 115.249C294.82 109.471 291.911 101.638 291.422 91.75C291.056 85.1582 291.768 77.9764 293.559 70.2046C295.39 62.4328 298.34 55.6782 302.409 49.9409C306.518 44.1629 311.34 39.8498 316.874 37.0015C322.449 34.1125 328.532 32.729 335.124 32.8511C344.808 33.0138 352.458 35.9232 358.073 41.5791C363.729 47.235 366.801 55.0272 367.289 64.9556L346.476 64.8945C346.557 59.4827 345.581 55.6172 343.546 53.2979C341.512 50.9785 338.297 49.7375 333.903 49.5747C322.917 49.2085 316.223 57.7534 313.822 75.2095C312.724 83.1034 312.174 88.7389 312.174 92.1162C311.971 102.126 315.674 107.273 323.283 107.558C328.206 107.721 332.133 106.521 335.062 103.957C337.992 101.353 339.864 97.6908 340.678 92.9707L361.063 92.7266ZM418.986 106.398H390.604L382.731 123H359.721L406.779 34.1328H426.432L442.851 123H421.122L418.986 106.398ZM398.417 89.8579H416.85L412.943 59.2183L398.417 89.8579ZM520.06 89.6138L538.615 34.1328H559.733L527.506 123H505.9L502.299 72.646L483.134 123H461.527L457.072 34.1328H477.396L478.617 89.3696L499.003 34.1328H516.764L520.06 89.6138Z"/></svg>